<svg width="100%" height="100%" viewBox="0 0 325 160" preserveAspectRatio="none" fill="none" xmlns="http://www.w3.org/2000/svg">
<path fill-rule="evenodd" clip-rule="evenodd" d="M135.429 1.39911C134.964 2.20645 134.586 2.29251 134.139 1.6909C133.267 0.515548 129.399 3.61212 128.78 5.98086C128.427 7.33079 128.386 6.98818 128.619 4.62272L128.93 1.45895L126.716 2.08842C123.479 3.00969 122.541 3.10886 121.984 2.5884C121.266 1.91712 118.038 2.47529 117.353 3.38918C116.971 3.89899 116.694 3.80309 116.548 3.10804C116.37 2.25809 115.997 2.24579 114.664 3.04411C113.531 3.72195 112.705 3.78096 112.07 3.23017C111.36 2.61299 110.896 2.81626 110.112 4.0875C109.258 5.4735 108.724 5.65464 106.943 5.16614C105.765 4.84239 104.574 4.70059 104.296 4.85058C104.018 4.99975 102.541 5.23581 101.012 5.37433C96.5963 5.77513 96.466 5.80627 96.466 6.46608C96.466 6.81114 95.7496 6.92179 94.8737 6.71361C93.4501 6.37428 93.3112 6.52017 93.5633 8.08485C93.7527 9.2602 93.6118 9.83558 93.1349 9.83558C92.7444 9.83558 92.4246 9.28233 92.4246 8.60614C92.4246 7.7865 91.9195 7.37669 90.9091 7.37669C90.0337 7.37669 89.3936 7.80945 89.3936 8.40123C89.3931 9.03398 88.6111 9.46757 87.3472 9.5356C85.0189 9.66018 84.2818 10.3938 85.3669 11.5068C85.8701 12.0232 85.9065 12.2732 85.4786 12.2822C85.1315 12.2887 84.8471 12.8477 84.8471 13.5239C84.8471 14.2001 84.5061 14.7534 84.0894 14.7534C83.6726 14.7534 83.3316 14.2001 83.3316 13.5239C83.3316 12.8477 83.559 12.2945 83.8368 12.2945C84.1146 12.2945 84.342 11.9256 84.342 11.4748C84.342 10.2388 82.9735 10.4913 82.6678 11.783C82.5052 12.4699 81.9288 12.7649 81.1948 12.5371C80.0804 12.192 80.0046 12.3822 80.1961 15.0419C80.3931 17.7786 81.6434 19.6949 82.2809 18.2368C82.442 17.8688 83.1993 17.5024 83.9631 17.4237C84.7269 17.3451 85.6367 17.2385 85.9838 17.1869C86.3313 17.1352 87.1264 17.3475 87.7518 17.6582C88.6005 18.0803 88.8885 17.8926 88.8885 16.918C88.8885 15.8566 89.1294 15.7623 90.1842 16.4131C92.1342 17.6155 93.9401 17.409 93.9401 15.9828C93.9401 15.2181 94.417 14.7534 95.2031 14.7534C95.9411 14.7534 96.466 15.2247 96.466 15.8861C96.466 17.4385 100.462 17.5368 100.827 15.9935C100.973 15.3788 101.699 14.8952 102.441 14.9181C105.012 14.9984 105.559 14.7476 105.559 13.4879C105.559 12.792 105.843 12.2822 106.19 12.356C106.538 12.4289 107.341 12.4453 107.976 12.3912C108.965 12.3084 109.054 12.0617 108.596 10.6741C108.16 9.35118 108.203 9.14136 108.831 9.5315C109.254 9.79542 109.6 10.5249 109.6 11.1527C109.6 11.7806 109.917 12.2945 110.304 12.2945C110.691 12.2945 111.137 12.842 111.296 13.5108C111.718 15.2976 117.81 14.823 119.198 12.8953C120.265 11.4126 121.481 10.9445 121.002 12.201C120.85 12.6002 121.297 13.1035 121.995 13.3207C122.693 13.537 123.388 13.3887 123.539 12.9912C123.691 12.5928 124.026 12.4797 124.285 12.7395C124.544 12.9985 124.755 12.8199 124.755 12.3428C124.755 11.8658 125.224 11.4748 125.795 11.4748C126.367 11.4748 126.695 11.8437 126.523 12.2945C126.331 12.7986 127.049 13.0666 128.388 12.9912C129.84 12.9092 130.112 12.7559 129.203 12.5314C128.233 12.2912 127.927 11.8355 128.137 10.9462C128.299 10.2602 128.571 10.0061 128.741 10.3815C129.218 11.4396 131.228 13.1141 132.021 13.1141C132.412 13.1141 133.779 11.5101 135.058 9.54871C136.651 7.10785 137.385 6.40624 137.385 7.32341C137.385 8.05944 136.698 9.32004 135.86 10.1233C134.144 11.7683 134.289 13.1141 136.181 13.1141C136.989 13.1141 137.317 12.7813 137.093 12.1912C136.84 11.5298 136.996 11.4994 137.64 12.0838C138.777 13.1166 140.416 12.4584 140.416 10.9691C140.416 10.3462 140.643 9.83558 140.921 9.83558C141.199 9.83558 141.426 10.3274 141.426 10.9282C141.426 12.6428 147.376 12.4469 147.661 10.7232C147.838 9.65363 147.886 9.67739 147.934 10.8601C148.002 12.5125 149.028 12.7469 149.913 11.3109C150.372 10.5651 150.519 10.561 150.519 11.2937C150.519 12.3658 159.391 12.3191 160.453 11.2421C160.776 10.9134 161.157 11.1085 161.298 11.6748C161.495 12.4609 161.676 12.4232 162.066 11.5142C162.346 10.8593 162.466 10.0339 162.331 9.67903C162.196 9.32495 162.438 9.25446 162.869 9.52248C163.301 9.79132 163.653 10.4454 163.653 10.9773C163.653 12.0338 164.618 12.2748 168.452 12.1765C169.841 12.1404 172.797 12.1953 175.019 12.2978C182.1 12.6248 182.537 12.5863 182.736 11.6191C182.871 10.9609 183.162 11.0445 183.684 11.892C184.635 13.4346 187.763 13.4666 189.991 11.956C191.463 10.9585 191.834 10.9585 192.675 11.956C193.868 13.3723 194.91 13.5026 194.064 12.1306C193.239 10.7921 193.302 9.83558 194.216 9.83558C194.633 9.83558 194.974 10.3888 194.974 11.065C194.974 11.7412 195.372 12.3248 195.858 12.3609C196.344 12.3978 197.424 12.515 198.257 12.6215C199.091 12.7281 199.94 12.4215 200.144 11.9404C200.392 11.3552 200.517 11.4044 200.523 12.0896C200.527 12.6535 201.042 13.1084 201.667 13.1018C202.458 13.0928 202.604 12.8838 202.148 12.4141C201.622 11.8724 201.639 11.5429 202.239 10.7347C202.848 9.91591 203.087 10.0372 203.534 11.3912C203.862 12.3855 204.386 12.8641 204.838 12.5822C205.255 12.3232 205.876 12.4855 206.22 12.9428C207.238 14.296 208.903 14.4239 209.798 13.2182C210.341 12.4879 210.634 12.4158 210.634 13.0141C210.634 13.9903 212.266 14.2903 212.807 13.4133C213.534 12.2338 217.156 12.3109 217.572 13.5149C218.011 14.7894 220.175 15.1419 223.407 14.4657C224.459 14.2452 225.994 14.3788 226.817 14.7616C227.641 15.1452 228.315 15.1616 228.315 14.7985C228.315 14.4354 228.883 14.1387 229.578 14.1387C230.272 14.1387 230.84 14.6026 230.84 15.1697C230.84 16.4017 232.743 17.377 232.972 16.2623C233.06 15.8353 233.98 15.1755 235.017 14.796C236.709 14.1772 236.902 14.2755 236.902 15.7509C236.902 17.2057 237.12 17.3287 238.797 16.8205C239.839 16.5049 240.515 16.5344 240.3 16.8861C239.733 17.8122 243.095 19.5138 243.804 18.6597C244.147 18.2458 244.526 18.3089 244.717 18.8114C244.897 19.2843 245.902 19.6712 246.951 19.6712C248 19.6712 249.022 19.9367 249.222 20.2613C249.788 21.1793 254.76 21.1981 255.467 20.2859C255.921 19.6999 256.099 19.8564 256.099 20.8408C256.099 21.9366 256.579 22.2006 258.498 22.1571C259.818 22.1268 261.662 22.3407 262.596 22.6325C263.693 22.9751 264.426 22.8136 264.669 22.176C264.957 21.4194 265.209 21.4449 265.75 22.2842C266.774 23.8751 269.076 25.3906 269.477 24.739C270.105 23.7193 272.23 24.0832 272.508 25.2586C272.723 26.1676 272.936 26.2045 273.511 25.4307C274.239 24.4496 275.512 24.9971 275.088 26.1086C274.892 26.6241 276.318 26.738 278.2 26.3561C278.547 26.2856 278.849 25.5824 278.871 24.7939C278.903 23.6472 278.97 23.6062 279.206 24.589C279.368 25.2652 279.839 26.2233 280.253 26.7184C280.668 27.2134 280.858 28.0093 280.676 28.4863C280.471 29.0232 280.712 29.1986 281.309 28.9453C281.839 28.7207 283.098 29.1732 284.108 29.9502C285.119 30.728 287.072 31.3649 288.45 31.3649C289.828 31.3649 290.955 31.6845 290.955 32.0747C290.955 32.4656 291.296 32.7853 291.713 32.7853C292.13 32.7853 292.471 32.3771 292.471 31.8779C292.471 31.3788 292.812 31.1829 293.229 31.4427C293.645 31.7017 293.986 31.5567 293.986 31.1206C293.986 29.8166 295.369 30.2223 295.7 31.623C296.154 33.5393 296.121 33.6049 294.708 33.6049C293.474 33.6049 293.452 33.6754 294.288 35.0319C294.915 36.0482 295.228 36.1687 295.376 35.4499C295.516 34.7639 296.115 35.0991 297.244 36.4974C298.295 37.7981 299.227 38.353 299.781 38.0088C300.298 37.6867 300.834 37.9309 301.093 38.6079C301.333 39.2374 301.936 39.753 302.431 39.753C302.927 39.7538 303.36 40.2152 303.395 40.7775C303.43 41.3406 303.487 42.1111 303.521 42.4889C303.698 44.4109 308.131 45.9387 308.131 44.0774C308.131 43.5266 308.485 43.8962 308.918 44.8986C309.351 45.9018 309.581 47.0485 309.429 47.4469C309.061 48.414 310.083 49.6467 311.808 50.3156C312.644 50.6401 313.767 52.1647 314.586 54.0859C315.342 55.8604 316.241 57.3259 316.583 57.3431C316.925 57.3603 317.36 58.3758 317.549 59.6012C317.739 60.8257 318.313 62.5568 318.824 63.4485C319.456 64.5493 319.637 65.6107 319.385 66.7549C319.181 67.6811 319.064 69.8925 319.125 71.6678C319.186 73.4439 318.897 75.7356 318.482 76.7618C318.068 77.788 317.729 79.1928 317.729 79.8854C317.729 80.5772 317.501 81.0509 317.223 80.9387C316.945 80.8256 316.429 81.6558 316.078 82.7828C315.726 83.9098 314.931 85.1958 314.31 85.6409C313.69 86.0859 313.183 87.0818 313.183 87.8539C313.183 88.6268 312.861 89.553 312.469 89.9136C312.076 90.2743 311.678 91.6758 311.585 93.0282C311.461 94.8191 311.138 95.5101 310.397 95.5707C309.062 95.6806 306.675 97.7403 305.112 100.13C304.424 101.183 303.801 101.962 303.728 101.861C303.354 101.348 298.661 104.77 297.656 106.289C297.305 106.82 297.017 107.693 297.017 108.228C297.017 108.786 296.602 109.026 296.046 108.79C295.512 108.564 294.37 109.073 293.508 109.924C292.646 110.774 291.614 111.47 291.213 111.47C290.813 111.47 289.644 112.668 288.616 114.132C287.589 115.597 286.331 116.68 285.82 116.539C285.168 116.36 284.893 116.789 284.893 117.991C284.893 119.43 284.682 119.611 283.548 119.149C282.433 118.696 282.256 118.834 282.521 119.953C282.735 120.857 282.577 121.306 282.045 121.306C281.545 121.306 281.357 120.848 281.54 120.076C281.738 119.24 281.513 118.847 280.836 118.847C280.289 118.847 279.842 119.154 279.842 119.529C279.842 119.906 279.558 120.275 279.21 120.352C273.658 121.581 270.86 123.315 270.652 125.658C270.512 127.249 270.423 127.297 269.76 126.14C269.009 124.829 268.984 124.833 264.601 127.003C263.582 127.508 261.896 128.098 260.855 128.313C259.814 128.53 258.701 129.059 258.381 129.49C258.062 129.92 256.451 130.514 254.803 130.81C253.14 131.108 250.742 132.266 249.419 133.412C247.502 135.07 246.887 135.28 246.293 134.481C245.753 133.754 245.283 133.722 244.546 134.363C243.99 134.845 242.76 135.239 241.812 135.239C240.864 135.239 239.384 135.81 238.522 136.507C237.558 137.288 234.978 137.93 231.808 138.178C228.977 138.399 226.268 138.921 225.788 139.338C225.308 139.755 223.35 140.155 221.437 140.229C219.524 140.303 217.044 140.856 215.926 141.459C214.808 142.062 212.421 142.622 210.622 142.704C208.331 142.809 206.995 143.302 206.164 144.351C205.132 145.652 204.881 145.695 204.252 144.673C203.725 143.818 203.193 143.704 202.298 144.255C201.622 144.672 200.209 144.985 199.158 144.949C198.107 144.914 197.019 144.965 196.742 145.063C196.464 145.161 195.521 145.178 194.646 145.102C193.771 145.026 192.905 145.358 192.722 145.839C192.538 146.32 191.861 146.714 191.217 146.714C190.573 146.714 189.768 147.257 189.428 147.921C188.92 148.916 188.695 148.939 188.149 148.053C187.329 146.722 181.541 147.053 180.472 148.494C179.899 149.265 179.652 149.243 179.327 148.389C179.017 147.575 177.495 147.335 173.299 147.44C167.163 147.594 165.177 148.361 165.154 150.587C165.139 151.934 165.097 151.929 164.589 150.509C164.145 149.269 163.955 149.191 163.594 150.099C163.244 150.98 163.087 150.862 162.864 149.548C162.671 148.412 162.103 147.816 161.096 147.691C160.28 147.59 159.612 147.834 159.612 148.233C159.612 148.632 158.93 148.829 158.096 148.671C157.263 148.514 156.581 148.72 156.581 149.129C156.581 150.192 155.033 150.597 153.508 149.934C152.526 149.507 152.056 149.748 151.61 150.909C151.283 151.757 150.631 152.452 150.161 152.452C149.496 152.452 149.441 152.233 149.913 151.468C151.198 149.383 150.498 148.764 146.974 148.867C145.025 148.924 143.311 148.662 143.167 148.283C142.783 147.275 140.499 149.18 140.245 150.721C140.07 151.785 140.016 151.749 139.969 150.535C139.916 149.19 139.491 149.052 135.995 149.249C133.842 149.371 131.577 149.758 130.961 150.11C130.303 150.487 129.711 150.402 129.521 149.906C129.344 149.441 128.853 149.277 128.429 149.541C128.005 149.805 127.403 149.699 127.091 149.306C125.452 147.24 123.286 147.968 122.604 150.812C122.37 151.789 122.301 151.744 122.269 150.594C122.241 149.569 121.825 149.157 120.84 149.181C120.076 149.199 118.89 149.113 118.204 148.989C116.829 148.74 116.073 151.343 117.193 152.466C117.533 152.808 117.656 153.498 117.465 153.999C116.964 155.315 116.167 155.119 116.167 153.681C116.167 153.005 115.932 152.452 115.645 152.452C115.299 152.452 115.314 151.869 115.69 150.728C116.238 149.067 116.165 149.016 113.687 149.294C111.757 149.511 111.115 149.302 111.115 148.458C111.116 147.551 110.969 147.53 110.358 148.353C109.898 148.972 109.6 149.038 109.6 148.52C109.6 148.02 108.291 147.662 106.443 147.656C104.707 147.65 100.748 147.522 97.6465 147.372C94.5448 147.223 92.1124 147.378 92.2418 147.717C92.555 148.539 90.9516 147.553 89.4704 146.013C88.6101 145.12 88.0549 145.013 87.4497 145.626C86.9845 146.097 86.1681 146.187 85.6049 145.831C84.1167 144.887 80.3299 144.957 78.0839 145.969C76.6038 146.635 76.0274 146.612 75.7455 145.872C75.5329 145.313 74.0931 144.841 72.4054 144.777C69.9477 144.685 69.245 144.981 68.3029 146.509C66.8889 148.803 65.9155 148.957 66.7642 146.751C67.4795 144.893 66.9294 143.492 66.0463 144.925C65.1759 146.337 64.4045 146.114 65.1456 144.665C65.4916 143.989 65.6897 143.417 65.5861 143.394C65.4831 143.372 63.961 143.148 62.2045 142.897C59.3407 142.488 58.877 142.64 57.7131 144.372L56.4153 146.304L56.7487 144.05C57.1119 141.595 57.1453 141.623 53.6531 141.383C52.472 141.301 51.5061 141.572 51.5061 141.984C51.5061 142.396 51.1489 142.154 50.7125 141.445C50.2755 140.737 49.5178 140.157 49.0283 140.157C48.5387 140.157 47.9932 139.921 47.8153 139.633C47.638 139.345 46.6338 139.015 45.5845 138.901C40.7385 138.372 37.6453 137.601 37.026 136.767C36.5259 136.093 36.1404 136.142 35.5388 136.952C34.8507 137.878 34.6264 137.824 34.0743 136.599C33.5843 135.512 33.356 135.418 33.1569 136.22C32.9488 137.058 32.7967 137.07 32.4507 136.279C32.2077 135.724 31.4808 135.434 30.8352 135.636C30.1891 135.838 28.3897 135.279 26.8358 134.393C25.2824 133.506 23.6047 132.99 23.1086 133.246C22.5555 133.53 22.2034 133.293 22.1988 132.63C22.1928 131.835 22.0589 131.875 21.6896 132.78C21.2607 133.833 21.0617 133.749 20.3085 132.203C19.824 131.209 18.1211 129.59 16.5233 128.605C14.9254 127.621 13.6186 126.572 13.6186 126.274C13.6186 125.977 12.8229 125.883 11.8505 126.068C10.2249 126.376 10.0824 126.228 10.0824 124.243C10.0824 122.488 9.79192 121.99 8.5285 121.58C7.43178 121.224 6.58916 120.085 5.6642 117.707C4.94333 115.854 4.40735 114.213 4.47302 114.059C4.53919 113.905 4.26388 113.352 3.86126 112.83C3.45915 112.308 2.98783 109.763 2.81354 107.178C2.5357 103.042 2.61956 102.352 3.51168 101.447C4.06939 100.883 4.52556 99.5869 4.52556 98.5681C4.52556 97.5501 4.74227 96.7166 5.00698 96.7166C5.27169 96.7166 5.86627 95.4257 6.32749 93.8479C6.7887 92.2701 7.48179 90.9792 7.86673 90.9792C8.25167 90.9792 8.56689 90.5144 8.56689 89.9472C8.56689 89.3792 9.02154 88.4539 9.57723 87.8908C10.1329 87.3277 10.5876 86.1753 10.5876 85.3302C10.5876 84.4532 11.0478 83.5984 11.6605 83.3385C12.5234 82.9722 12.6699 82.473 12.4087 80.7837C12.0914 78.7347 12.7416 77.8659 13.366 79.5043C13.5377 79.9551 13.8676 80.3239 14.0995 80.3239C14.7274 80.3239 15.1917 77.8577 14.7693 76.7667C14.5673 76.2438 14.4667 75.1709 14.5471 74.3816C14.6269 73.5931 14.4374 72.9472 14.1258 72.9472C13.8141 72.9472 13.6953 73.3054 13.8621 73.7431C14.0288 74.1808 13.5958 74.7701 12.8997 75.0537C12.2036 75.3373 11.4969 76.27 11.3291 77.1266C11.1619 77.9839 10.8129 78.6847 10.5537 78.6847C10.2946 78.6847 10.0824 79.1338 10.0824 79.683C10.0824 80.2321 9.47771 81.5247 8.73915 82.555C8.00009 83.5844 7.14636 85.2565 6.84225 86.2687C6.53814 87.2818 5.5561 88.6637 4.66043 89.3399C3.76326 90.0169 3.02723 91.2021 3.02117 91.9783C3.01409 92.8905 2.74282 93.22 2.2523 92.9151C1.37331 92.3676 1.29754 93.3094 1.98355 96.2387C2.3887 97.9657 2.29878 98.4771 1.46424 99.2017C0.909569 99.6836 0.595355 100.443 0.766101 100.892C0.936848 101.339 0.786308 102.273 0.431681 102.966C-0.0477228 103.904 -0.0709602 104.595 0.341761 105.668C0.681739 106.55 0.721647 107.557 0.445825 108.264C-0.168458 109.839 -0.140674 113.929 0.484218 113.929C0.76206 113.929 1.00757 114.944 1.02929 116.183C1.05102 117.422 1.18387 117.976 1.32381 117.412C1.65469 116.084 2.40891 116.084 2.33717 117.412C2.24372 119.142 4.16689 124.584 4.87159 124.584C5.23683 124.584 5.53589 125.103 5.53589 125.736C5.53589 126.46 5.8885 126.74 6.48207 126.488C7.12969 126.213 7.77732 126.883 8.53709 128.614C9.14682 130.004 10.0854 131.141 10.6219 131.141C11.1589 131.141 11.5979 131.694 11.5979 132.371C11.5979 133.047 11.9389 133.6 12.3556 133.6C12.7724 133.6 13.1134 134 13.1134 134.488C13.1134 134.976 13.3978 135.206 13.7449 135C14.0924 134.793 14.3223 134.223 14.2561 133.732C14.1899 133.241 14.4743 133.05 14.8875 133.307C15.3008 133.565 15.6392 134.248 15.6392 134.824C15.6392 135.847 18.5253 138.518 19.6306 138.518C19.9362 138.518 20.1857 138.831 20.1857 139.213C20.1857 139.595 20.8904 139.94 21.7523 139.98C22.6136 140.019 23.7234 140.647 24.2185 141.374C24.8227 142.261 25.5531 142.518 26.4407 142.157C27.2167 141.841 27.7632 141.963 27.7632 142.45C27.7632 142.908 28.2179 143.089 28.7736 142.854C29.9137 142.369 30.0986 141.319 29.1525 140.7C28.8054 140.473 29.0327 140.257 29.6576 140.222C30.3148 140.184 30.7942 140.641 30.7942 141.306C30.7942 142.675 33.6075 144.627 35.2145 144.372C35.8394 144.274 36.3511 144.536 36.3511 144.956C36.3511 146.224 37.9474 146.806 38.6885 145.808C39.2255 145.085 39.3821 145.159 39.3821 146.139C39.3821 147.094 40.1535 147.516 42.5394 147.863C44.2761 148.117 46.3443 148.284 47.1364 148.236C48.4337 148.157 48.5483 147.922 48.2948 145.866C48.0967 144.26 48.2437 143.441 48.7908 143.1C49.9709 142.365 50.1265 142.498 49.7845 143.945C49.543 144.966 49.7057 145.172 50.4882 144.84C51.7855 144.29 51.7956 145.194 50.5094 146.698C49.5915 147.771 49.5769 147.978 50.3205 149.312C50.8903 150.333 51.3778 150.543 51.9759 150.024C52.4563 149.606 53.1292 149.594 53.5298 149.996C53.9183 150.385 54.3987 150.542 54.5967 150.343C54.7952 150.143 55.6015 150.382 56.389 150.873C57.1766 151.364 58.9573 151.93 60.3465 152.133C61.7357 152.334 63.2987 152.713 63.8195 152.974C64.4364 153.282 64.6465 153.13 64.4212 152.539C63.9029 151.179 64.9269 151.447 65.6508 152.861C66.5389 154.598 67.1663 154.387 67.1663 152.352C67.1663 151.079 67.336 150.827 67.7977 151.412C68.1453 151.853 69.1683 152.617 70.071 153.11C71.6117 153.951 71.7128 153.888 71.7128 152.095C71.7128 150.874 72.077 150.03 72.7216 149.756C73.5152 149.419 73.6375 149.597 73.295 150.59C72.5322 152.801 74.3644 154.819 77.1145 154.8C78.4502 154.79 80.5103 155.142 81.6929 155.58C82.9482 156.046 83.959 156.073 84.1222 155.644C84.2758 155.241 84.1606 154.91 83.8666 154.91C83.5726 154.91 83.3316 154.623 83.3316 154.27C83.3316 153.258 86.1924 151.775 86.8577 152.442C87.2517 152.837 87.0527 153.229 86.2793 153.582L85.0997 154.12L86.2495 155.688C87.7094 157.68 94.8393 157.973 95.292 156.06C95.6532 154.533 96.466 154.588 96.466 156.14C96.466 156.896 96.9393 157.369 97.695 157.369C98.7291 157.369 98.9175 156.985 98.8817 154.951C98.8509 153.184 98.5654 152.467 97.8218 152.288C96.9348 152.073 96.9019 151.911 97.5677 151.022C98.2133 150.159 98.5175 150.591 99.5455 153.835L100.76 157.668L101.046 155.265C101.204 153.942 101.156 152.049 100.942 151.057C100.639 149.658 100.716 149.355 101.287 149.71C101.691 149.962 102.026 150.589 102.03 151.105C102.035 151.666 102.215 151.588 102.479 150.912C103.1 149.323 104.149 150.622 103.777 152.52C103.609 153.384 103.697 154.091 103.975 154.091C104.253 154.091 104.625 154.828 104.801 155.73C104.978 156.632 105.447 157.369 105.845 157.369C106.243 157.369 106.569 157.738 106.569 158.189C106.569 159.282 108.399 159.232 109.698 158.105C110.497 157.41 110.839 157.458 111.172 158.309C111.509 159.171 111.607 159.099 111.613 157.984C111.622 156.274 112.99 156.101 114.107 157.669C114.546 158.283 115.757 158.998 116.799 159.256C118.277 159.622 118.693 159.454 118.693 158.492C118.693 157.255 119.921 157.474 121.698 159.026C122.1 159.377 122.944 159.347 123.574 158.958C124.262 158.534 124.84 158.567 125.02 159.04C125.461 160.196 128.676 160.002 128.925 158.804C129.079 158.064 129.336 158.02 129.851 158.645C130.243 159.122 131.871 159.604 133.467 159.717C136.034 159.898 136.511 159.674 137.595 157.775L138.822 155.628L138.987 157.523C139.142 159.304 139.352 159.408 142.436 159.241C144.242 159.143 145.947 159.025 146.225 158.977C146.503 158.931 149.834 159.147 153.628 159.457C160.099 159.986 160.54 159.927 160.768 158.491C160.982 157.139 161.017 157.128 161.069 158.394C161.121 159.673 161.684 160.191 162.747 159.937C163.516 159.753 178.131 158.833 179.44 158.886C180.203 158.918 180.829 158.598 180.829 158.176C180.829 157.712 181.294 157.696 182.007 158.137C182.656 158.537 183.488 158.562 183.857 158.192C184.229 157.819 184.906 157.903 185.376 158.38C185.904 158.914 186.972 158.989 188.2 158.577C189.286 158.212 190.381 157.995 190.633 158.094C190.886 158.194 191.255 157.849 191.453 157.328C191.725 156.613 192.08 156.612 192.899 157.323C193.496 157.841 194.191 158.057 194.444 157.804C194.697 157.55 196.327 157.163 198.067 156.944C199.807 156.724 201.378 156.159 201.557 155.687C201.737 155.215 202.318 154.842 202.849 154.859C204.178 154.901 205.667 154.897 206.719 154.849C207.205 154.827 207.603 154.279 207.603 153.63C207.603 152.982 207.944 152.452 208.36 152.452C208.777 152.452 209.118 152.82 209.118 153.271C209.118 153.722 209.445 154.091 209.844 154.091C210.361 154.091 210.563 153.133 210.542 150.773C210.527 148.948 210.654 147.226 210.826 146.948C210.998 146.669 211.139 147.407 211.139 148.588C211.139 150.986 212.104 154.91 212.694 154.91C213.641 154.91 214.675 153.82 214.675 152.822C214.675 150.976 215.802 150.48 216.496 152.02C217.274 153.747 218.972 153.076 218.532 151.216C218.363 150.501 218.528 149.993 218.931 149.993C219.309 149.993 219.749 150.546 219.91 151.222C220.069 151.898 220.719 152.409 221.353 152.356C222.208 152.286 222.277 152.165 221.621 151.887C220.595 151.452 220.423 149.993 221.398 149.993C221.762 149.993 222.5 150.516 223.039 151.154C223.73 151.975 224.204 152.066 224.651 151.464C225.096 150.864 225.284 150.895 225.284 151.569C225.284 152.204 225.835 152.358 226.925 152.028C228.679 151.496 229.273 151.332 234.377 149.975C236.183 149.493 238.115 148.762 238.671 148.346C239.226 147.931 240.249 147.63 240.944 147.678C242.749 147.803 246.163 146.709 246.728 145.826C246.992 145.413 247.639 145.075 248.166 145.075C248.692 145.075 249.727 144.386 250.464 143.544C251.377 142.501 252.127 142.222 252.815 142.667C254.413 143.7 255.082 143.542 254.766 142.206C254.582 141.428 254.773 140.977 255.287 140.977C255.734 140.977 256.099 141.346 256.099 141.796C256.099 142.247 256.44 142.616 256.857 142.616C257.752 142.616 257.76 142.526 257.122 139.801C256.801 138.434 256.801 137.698 257.122 137.698C257.393 137.698 257.614 138.251 257.614 138.928C257.614 139.604 258.05 140.157 258.583 140.157C259.115 140.157 259.626 140.514 259.719 140.951C259.818 141.417 260.851 141.183 262.212 140.387C263.971 139.359 264.678 138.422 265.116 136.539L265.695 134.051L266.464 135.832C267.196 137.528 267.333 137.556 269.297 136.432C270.432 135.782 271.532 135.421 271.74 135.63C271.948 135.838 272.016 135.142 271.891 134.081C271.668 132.187 272.794 130.033 273.137 131.699C273.233 132.166 273.606 133.202 273.967 134.002C274.545 135.286 274.854 135.339 276.6 134.457C277.689 133.907 279.543 132.752 280.72 131.889C281.898 131.027 283.21 130.321 283.635 130.321C284.06 130.321 285.309 129.399 286.409 128.272C287.509 127.145 288.739 126.223 289.141 126.223C289.543 126.223 290.173 125.762 290.541 125.199C290.907 124.636 291.971 124.075 292.904 123.955C293.837 123.833 295.081 123.188 295.669 122.52C296.256 121.852 297.141 121.306 297.635 121.306C298.129 121.306 298.533 120.752 298.533 120.076C298.533 119.387 298.983 118.847 299.559 118.847C300.124 118.847 300.716 118.293 300.876 117.617C301.036 116.941 301.716 116.388 302.388 116.388C303.226 116.388 303.76 115.744 304.09 114.339C304.559 112.334 305.605 111.486 305.605 113.109C305.605 114.321 306.58 114.104 307.446 112.699C307.862 112.023 308.588 111.47 309.057 111.47C309.528 111.47 310.137 110.67 310.411 109.693C310.685 108.715 311.363 107.517 311.916 107.029C312.47 106.542 313.425 105.313 314.039 104.298C314.653 103.284 315.336 102.438 315.558 102.42C315.78 102.4 316.529 101.226 317.224 99.8099C317.919 98.3935 319.114 96.2682 319.88 95.088C321.738 92.2234 324.692 82.6025 323.277 84.0213C322.255 85.0467 322.614 81.1723 323.917 77.1118C324.701 74.6685 325.164 72.4555 324.946 72.194C324.727 71.9317 324.548 69.1663 324.548 66.0484C324.547 62.2478 324.339 60.2659 323.916 60.0372C323.569 59.8495 323.286 59.2135 323.286 58.6234C323.286 58.0324 322.966 57.3505 322.576 57.1079C322.185 56.8644 321.713 55.5383 321.527 54.1605C321.34 52.7827 320.978 51.445 320.721 51.1877C320.465 50.9311 320.247 49.9123 320.237 48.9247C320.227 47.937 319.715 46.192 319.1 45.047C317.569 42.1955 314.193 38.2432 314.193 39.3005C314.193 39.7743 313.852 40.162 313.435 40.162C313.019 40.162 312.678 39.8521 312.678 39.4743C312.678 39.0956 312.109 38.3653 311.415 37.8522C310.72 37.3383 310.146 36.2654 310.139 35.4663C310.126 33.9828 307.256 31.146 305.766 31.146C305.322 31.146 304.635 30.5001 304.24 29.7117C303.746 28.7256 303.442 28.5814 303.269 29.251C303.098 29.91 302.686 29.6887 301.994 28.565C301.283 27.4126 300.598 27.0577 299.752 27.4019C299.068 27.6806 298.533 27.5364 298.533 27.0741C298.533 25.7364 294.91 22.43 292.723 21.7719C291.612 21.4375 290.47 20.8514 290.185 20.4703C289.139 19.0687 283.862 16.6525 280.174 15.8869C279.019 15.6476 277.335 15.1394 276.432 14.7583C275.32 14.2895 274.79 14.355 274.79 14.9624C274.79 15.455 274.278 15.0919 273.653 14.1542C272.94 13.0846 271.576 12.2994 269.991 12.0445C268.602 11.8207 266.328 11.2249 264.939 10.7191C263.55 10.2143 261.097 9.65691 259.487 9.47987C257.878 9.30364 256.287 8.80449 255.951 8.3709C255.616 7.93732 253.75 7.54881 251.805 7.50701C248.32 7.43242 247.492 7.2644 245.995 6.33248C244.636 5.4858 239.933 5.13991 239.933 5.8866C239.933 6.2874 239.514 6.25051 239 5.80463C238.359 5.24728 237.886 5.28909 237.485 5.93987C237.045 6.65377 236.902 6.60541 236.902 5.7448C236.902 4.91451 236.73 4.98828 236.266 6.01528C235.549 7.60701 233.516 7.45537 232.871 5.76283C232.594 5.03746 231.932 4.85058 230.867 5.19647C229.784 5.54727 229.383 5.42842 229.613 4.82353C229.826 4.26618 229.52 4.30963 228.795 4.93992C227.836 5.77185 227.538 5.72595 227.064 4.67518C226.551 3.53589 226.433 3.54655 225.918 4.776C225.385 6.04724 225.341 6.04233 225.313 4.71288C225.297 3.9244 225.227 3.24492 225.157 3.20394C225.088 3.16378 222.772 2.96707 220.011 2.7679C217.25 2.56791 214.713 2.03023 214.373 1.57287C213.95 1.00241 213.643 1.03438 213.4 1.67287C213.168 2.28104 212.405 2.39906 211.207 2.01138C208.079 0.998312 206.087 1.0811 206.087 2.22448C206.087 2.80396 205.86 3.27853 205.582 3.27853C205.304 3.27853 205.134 2.86379 205.203 2.35644C205.273 1.84909 204.761 1.33436 204.067 1.21224C203.372 1.09011 202.292 0.724554 201.667 0.39916C200.807 -0.0475391 200.53 0.131141 200.53 1.13355C200.53 1.86302 200.796 2.4589 201.12 2.4589C201.444 2.4589 201.539 2.73511 201.331 3.07198C201.123 3.40967 200.667 3.05149 200.318 2.27612C199.454 0.359819 197.1 0.225399 195.042 1.97449C193.703 3.11132 193.22 3.20394 192.769 2.40808C192.336 1.64664 192.35 1.54091 192.827 1.97695C193.214 2.33185 193.458 2.06219 193.458 1.27781C193.458 0.575382 193.168 0 192.813 0C192.027 0 189.902 2.23268 189.038 3.96456C188.489 5.06615 188.406 4.98992 188.406 3.38016C188.406 1.90155 188.203 1.63353 187.396 2.04908C186.676 2.41955 186.386 2.19661 186.386 1.27207C186.386 0.322115 185.945 0.0155727 184.744 0.128682C183.841 0.214743 182.734 0.576202 182.284 0.932742C181.835 1.28928 181.329 1.35813 181.161 1.08519C180.993 0.811435 178.769 0.482763 176.221 0.35408C172.716 0.177859 171.298 0.427028 170.404 1.37862C169.411 2.43431 169.177 2.45316 168.951 1.49665C168.667 0.299166 166.811 0.0893392 165.766 1.13683C165.428 1.47534 165.26 2.03597 165.392 2.38185C165.524 2.72774 165.321 3.73097 164.942 4.60961C164.353 5.97348 162.672 6.47673 161.127 5.75218C160.7 5.55219 163.371 3.83096 163.842 4.0039C164.084 4.09242 164.141 3.56704 163.968 2.83511C163.795 2.104 163.653 1.16388 163.653 0.747505C163.653 0.307363 162.011 0.190974 159.738 0.469649C155.12 1.0352 155.203 1.03683 153.424 0.347524C152.361 -0.0647511 152.034 0.109011 152.034 1.08519C152.034 2.21628 151.876 2.22776 150.645 1.18601C148.743 -0.423749 144.963 -0.319657 143.464 1.38354C142.601 2.36464 142.189 2.48348 142.047 1.79335C141.753 0.364736 139.133 0.606528 138.352 2.1335C137.741 3.32853 137.608 3.30312 136.883 1.85155C136.206 0.495058 135.989 0.427029 135.429 1.39911ZM141.931 3.68834C141.931 4.36454 141.704 4.96369 141.426 5.02025C141.148 5.0768 140.685 5.1686 140.397 5.22515C140.109 5.28171 139.658 5.88086 139.395 6.55706C138.715 8.30041 138.74 6.11445 139.423 4.04406C140.039 2.17694 141.931 1.90892 141.931 3.68834ZM115.157 5.27925C115.157 5.47842 114.93 5.86857 114.652 6.14724C114.374 6.42591 114.147 6.26281 114.147 5.78578C114.147 5.30875 114.374 4.91779 114.652 4.91779C114.93 4.91779 115.157 5.08008 115.157 5.27925ZM100.277 9.77739C99.7804 11.0814 98.9802 10.0192 99.3333 8.52499C99.5278 7.7029 99.8031 7.54553 100.126 8.0701C100.399 8.51188 100.466 9.27987 100.277 9.77739ZM223.768 8.60614C223.768 9.28233 223.434 9.83558 223.026 9.83558C222.574 9.83558 222.398 9.35528 222.575 8.60614C222.735 7.92994 223.069 7.37669 223.317 7.37669C223.565 7.37669 223.768 7.92994 223.768 8.60614ZM229.036 7.99141C228.785 8.32992 228.409 8.97497 228.202 9.42577C227.987 9.89378 227.822 9.62986 227.817 8.81104C227.813 8.01354 228.183 7.37669 228.652 7.37669C229.114 7.37669 229.288 7.6529 229.036 7.99141ZM97.9815 9.83558C97.9815 10.2864 97.7541 10.6552 97.4763 10.6552C97.1985 10.6552 96.9711 10.2864 96.9711 9.83558C96.9711 9.38479 97.1985 9.01595 97.4763 9.01595C97.7541 9.01595 97.9815 9.38479 97.9815 9.83558ZM114.01 9.51101C113.842 9.78313 113.406 9.81263 113.042 9.57576C112.639 9.3143 112.759 9.12004 113.347 9.0807C113.88 9.04546 114.178 9.23889 114.01 9.51101ZM236.902 10.7175C236.902 11.1052 236.561 11.2109 236.145 10.9519C235.728 10.6921 235.387 10.1618 235.387 9.77329C235.387 9.38561 235.728 9.27987 236.145 9.53888C236.561 9.7987 236.902 10.329 236.902 10.7175ZM247.511 9.83558C247.511 10.2864 247.113 10.6495 246.627 10.6429C245.871 10.6323 245.853 10.5142 246.501 9.83558C247.454 8.83563 247.511 8.83563 247.511 9.83558ZM88.6359 11.4748C88.8076 11.9256 88.7071 12.2945 88.4131 12.2945C88.1191 12.2945 87.8781 11.9256 87.8781 11.4748C87.8781 11.0241 87.9781 10.6552 88.1009 10.6552C88.2237 10.6552 88.4641 11.0241 88.6359 11.4748ZM220.737 11.4748C220.737 11.9256 220.496 12.2945 220.202 12.2945C219.908 12.2945 219.808 11.9256 219.979 11.4748C220.151 11.0241 220.392 10.6552 220.514 10.6552C220.637 10.6552 220.737 11.0241 220.737 11.4748ZM233.344 13.4788C233.803 14.3772 233.823 14.7534 233.412 14.7534C233.091 14.7534 232.698 14.2001 232.539 13.5239C232.379 12.8477 231.931 12.2945 231.544 12.2945C231.157 12.2945 230.84 11.9125 230.84 11.4462C230.84 10.3847 232.415 11.6625 233.344 13.4788ZM226.662 11.9699C226.494 12.242 226.059 12.2715 225.694 12.0347C225.291 11.7732 225.411 11.5789 225.999 11.5396C226.532 11.5044 226.83 11.6978 226.662 11.9699ZM78.6169 14.4804C77.9587 15.5476 78.2936 17.2123 79.164 17.2C79.8631 17.1901 79.9025 17.0377 79.3519 16.4713C78.969 16.0779 78.8119 15.346 79.0028 14.8452C79.3848 13.8428 79.1478 13.619 78.6169 14.4804ZM245.353 16.8877C245.186 17.1598 244.75 17.1893 244.385 16.9524C243.982 16.691 244.102 16.4967 244.691 16.4574C245.223 16.4221 245.521 16.6156 245.353 16.8877ZM247.006 18.0319C247.006 18.4827 246.778 18.8515 246.501 18.8515C246.223 18.8515 245.995 18.4827 245.995 18.0319C245.995 17.5811 246.223 17.2123 246.501 17.2123C246.778 17.2123 247.006 17.5811 247.006 18.0319ZM252.563 18.4417C252.563 19.1179 252.335 19.6712 252.057 19.6712C251.78 19.6712 251.552 19.1179 251.552 18.4417C251.552 17.7655 251.78 17.2123 252.057 17.2123C252.335 17.2123 252.563 17.7655 252.563 18.4417ZM266.707 20.1293C266.707 20.8318 266.48 21.1793 266.202 20.9006C265.924 20.6219 265.697 20.0474 265.697 19.6228C265.697 19.1982 265.924 18.8515 266.202 18.8515C266.48 18.8515 266.707 19.4269 266.707 20.1293ZM285.398 27.4577C285.398 28.1339 285.058 28.6871 284.641 28.6871C284.224 28.6871 283.883 28.1339 283.883 27.4577C283.883 26.7815 284.224 26.2282 284.641 26.2282C285.058 26.2282 285.398 26.7815 285.398 27.4577ZM302.909 34.6295C302.769 35.1934 302.654 34.7319 302.654 33.6049C302.654 32.4779 302.769 32.0173 302.909 32.5804C303.049 33.1443 303.049 34.0664 302.909 34.6295ZM64.893 44.2601C64.7213 44.7109 64.8218 45.0798 65.1158 45.0798C65.4098 45.0798 65.6508 44.7109 65.6508 44.2601C65.6508 43.8093 65.5508 43.4405 65.428 43.4405C65.3052 43.4405 65.0648 43.8093 64.893 44.2601ZM58.1531 47.5387C58.1531 48.6656 58.2678 49.1271 58.4077 48.5632C58.5481 48.0001 58.5481 47.078 58.4077 46.5141C58.2678 45.951 58.1531 46.4117 58.1531 47.5387ZM47.5587 48.5337C46.7717 49.8107 46.7909 51.0532 47.5911 50.5828C47.9386 50.3787 48.6059 50.7524 49.0747 51.4139C49.5435 52.0761 50.1684 52.3745 50.4639 52.0786C51.1838 51.3565 51.1479 49.9976 50.4094 49.9976C50.0841 49.9976 49.444 49.4492 48.9878 48.7796C48.3478 47.8395 48.021 47.7837 47.5587 48.5337ZM40.7642 52.127C40.598 52.3966 40.5839 53.1318 40.7329 53.7621C40.9501 54.6809 40.5561 54.808 38.7441 54.4047C37.3053 54.0851 36.3577 54.2359 36.1354 54.8186C35.9434 55.3227 36.0273 55.735 36.3213 55.735C36.6153 55.735 36.8563 56.6112 36.8563 57.6816C36.8563 59.2119 37.1265 59.6282 38.1192 59.6282C39.0088 59.6282 39.3821 59.1824 39.3821 58.1201C39.3821 56.4604 40.789 54.9268 41.7821 55.5047C42.2045 55.7506 42.3015 55.3973 42.0751 54.44C41.8438 53.463 41.9241 53.1958 42.3272 53.5998C42.6525 53.926 42.9183 53.8416 42.9183 53.4121C42.9183 52.9827 42.5586 52.4081 42.1191 52.1343C41.1386 51.5237 41.1355 51.5237 40.7642 52.127ZM43.9286 53.8834C43.9286 55.3948 44.8621 55.8956 45.8189 54.8981C46.5353 54.1506 46.5479 54.0506 45.8846 54.3793C45.432 54.6039 44.8071 54.3736 44.4954 53.8679C44.0766 53.1884 43.9286 53.1925 43.9286 53.8834ZM33.0675 56.5546C32.8957 57.0054 32.9963 57.3742 33.2903 57.3742C33.5843 57.3742 33.8253 57.8972 33.8253 58.5357C33.8253 60.2184 34.9922 60.5978 35.658 59.1315C36.0879 58.1849 36.0657 57.6136 35.5676 56.8062C34.7841 55.5342 33.505 55.4055 33.0675 56.5546ZM29.6576 58.7586C29.1711 58.9651 28.7736 59.7995 28.7736 60.6126C28.7736 61.4257 28.3902 62.5978 27.9214 63.2166C27.1793 64.1952 27.1096 64.1641 27.3844 62.9748C27.5718 62.1609 27.4061 61.4257 26.9737 61.156C26.5746 60.9077 26.2477 61.0618 26.2477 61.4978C26.2477 61.9347 25.9068 62.292 25.49 62.292C25.0732 62.292 24.7322 62.6494 24.7322 63.0863C24.7322 63.5223 24.4145 63.6821 24.0255 63.4395C22.897 62.7371 22.7555 64.1993 23.7866 65.9189C24.6206 67.3106 24.7322 67.3352 24.7322 66.1238C24.7322 65.3689 25.0732 64.7509 25.49 64.7509C25.9068 64.7509 26.2477 65.3296 26.2477 66.0377C26.2477 68.1901 28.428 67.1033 28.8286 64.7509C29.0484 63.4616 29.1969 63.2338 29.2282 64.1362C29.2848 65.7378 30.0481 66.0476 30.5689 64.6796C30.7553 64.1895 31.3333 63.969 31.8531 64.1895C32.625 64.5165 32.7098 64.3247 32.3188 63.1387C32.0556 62.3412 31.9784 61.4642 32.1471 61.1904C32.483 60.6446 31.3691 58.1357 30.8589 58.2889C30.6841 58.3414 30.1441 58.5529 29.6576 58.7586ZM32.8149 61.4724C32.1673 62.1511 32.1855 62.2691 32.9412 62.2797C33.4277 62.2863 33.8253 61.9232 33.8253 61.4724C33.8253 60.4724 33.7682 60.4724 32.8149 61.4724ZM19.5816 67.5959C16.981 70.3179 16.7082 71.0162 18.0388 71.5465C18.5247 71.7399 18.1843 71.7489 17.281 71.5662C15.5816 71.2219 15.0199 72.3866 16.4541 73.2792C16.9714 73.6013 17.1734 74.3824 17.0067 75.416C16.8622 76.3118 16.9501 77.0454 17.2022 77.0454C17.4538 77.0454 17.6599 76.3077 17.6599 75.4061C17.6599 73.6193 18.0322 73.3964 19.1304 74.5242C19.9579 75.3742 21.7012 73.9103 21.7012 72.3661C21.7012 71.7776 22.069 71.5514 22.5853 71.8211C23.2981 72.1932 23.3289 72.1211 22.7439 71.4481C22.1524 70.767 22.1372 70.3818 22.6616 69.3564C23.1834 68.3368 23.1773 67.818 22.6292 66.6066C21.9872 65.187 21.8366 65.2353 19.5816 67.5959ZM9.32464 85.2417C9.49893 85.6991 9.12106 86.0556 8.47041 86.0491C7.5318 86.0384 7.45199 85.881 8.06172 85.2417C9.00184 84.2565 8.9493 84.2565 9.32464 85.2417ZM304.342 106.552C304.514 107.003 304.287 107.372 303.837 107.372C303.387 107.372 303.16 107.003 303.332 106.552C303.504 106.101 303.731 105.733 303.837 105.733C303.943 105.733 304.171 106.101 304.342 106.552ZM295.676 115.194C295.511 115.889 295.268 116.283 295.136 116.068C295.004 115.853 295.045 115.284 295.229 114.803C295.727 113.495 296.018 113.749 295.676 115.194ZM294.161 120.111C293.996 120.807 293.753 121.201 293.621 120.986C293.488 120.771 293.53 120.201 293.713 119.721C294.211 118.413 294.502 118.667 294.161 120.111ZM282.367 122.945C282.367 123.396 282.127 123.764 281.833 123.764C281.538 123.764 281.438 123.396 281.61 122.945C281.781 122.494 282.022 122.125 282.145 122.125C282.267 122.125 282.367 122.494 282.367 122.945ZM284.136 122.945C284.307 123.396 284.093 123.764 283.66 123.764C283.227 123.764 282.873 123.396 282.873 122.945C282.873 122.494 283.086 122.125 283.348 122.125C283.61 122.125 283.964 122.494 284.136 122.945ZM250.542 139.337C250.542 139.788 250.315 140.157 250.037 140.157C249.759 140.157 249.532 139.788 249.532 139.337C249.532 138.887 249.759 138.518 250.037 138.518C250.315 138.518 250.542 138.887 250.542 139.337ZM55.211 146.795C55.4424 147.076 55.2721 147.53 54.8321 147.803C54.2557 148.162 54.0319 147.812 54.0319 146.552C54.0319 145.59 54.2027 145.136 54.4108 145.544C54.6189 145.951 54.9791 146.515 55.211 146.795ZM63.9984 148.029C63.8307 148.301 63.3947 148.33 63.0305 148.094C62.6274 147.832 62.7471 147.638 63.3356 147.599C63.868 147.563 64.1661 147.757 63.9984 148.029ZM187.901 151.222C187.901 151.929 187.446 152.452 186.829 152.452C185.933 152.452 185.86 152.249 186.386 151.222C186.732 150.546 187.214 149.993 187.458 149.993C187.702 149.993 187.901 150.546 187.901 151.222ZM132.585 151.632C132.757 152.083 132.53 152.452 132.08 152.452C131.631 152.452 131.403 152.083 131.575 151.632C131.747 151.181 131.974 150.812 132.08 150.812C132.186 150.812 132.414 151.181 132.585 151.632ZM112.631 151.942C112.631 152.111 112.29 152.71 111.874 153.271C111.253 154.107 111.116 154.051 111.116 152.961C111.116 152.23 111.457 151.632 111.874 151.632C112.29 151.632 112.631 151.771 112.631 151.942ZM145.972 151.993C145.972 152.193 145.745 152.583 145.467 152.861C145.189 153.14 144.962 152.977 144.962 152.5C144.962 152.023 145.189 151.632 145.467 151.632C145.745 151.632 145.972 151.794 145.972 151.993ZM123.534 154.091C123.928 154.091 124.25 154.828 124.25 155.73C124.25 156.632 124.12 157.369 123.962 157.369C123.381 157.369 122.479 155.278 122.37 153.681C122.309 152.779 122.385 152.503 122.539 153.066C122.693 153.63 123.141 154.091 123.534 154.091ZM102.528 155.73C102.528 156.787 102.784 157.368 103.159 157.164C103.507 156.977 103.791 156.331 103.791 155.73C103.791 155.129 103.507 154.483 103.159 154.296C102.784 154.092 102.528 154.674 102.528 155.73ZM134.699 155.884C134.537 156.537 134.418 156.343 134.393 155.388C134.372 154.524 134.491 154.041 134.659 154.313C134.826 154.585 134.845 155.292 134.699 155.884ZM136.122 158.189C136.293 158.64 136.079 159.009 135.646 159.009C135.213 159.009 134.859 158.64 134.859 158.189C134.859 157.738 135.072 157.369 135.334 157.369C135.596 157.369 135.95 157.738 136.122 158.189Z" fill="#6966FF"/>
</svg>
